<?xml version="1.0" encoding="UTF-8"?>
<svg xmlns="http://www.w3.org/2000/svg" viewBox="0 0 297.42 61.6">
  <defs>
    <style>
      .cls-1 {
        fill: #d1dec0;
        stroke: #d1dec0;
        stroke-miterlimit: 10;
        stroke-width: 3px;
      }
    </style>
  </defs>
  <g id="Layer_2" data-name="Layer 2">
    <rect class="cls-1" x="120.26" y="11.35" width="165.4" height="45.21" rx="21.12" ry="21.12"/>
  </g>
  <g id="Layer_1" data-name="Layer 1">
    <g>
      <path d="M11.79,42.91l-.15-4.39h2.18l1.07,4.76-1.98-.91v-1.38c1.42,1.08,2.93,1.64,4.92,1.64,3.03,0,4.46-1.21,4.46-3.04,0-1.69-1.17-2.57-3.7-3.48l-1.86-.68c-2.93-1.07-4.84-2.66-4.84-5.39,0-2.93,2.47-5.61,6.96-5.61,2.17,0,3.86.6,5.6,1.64l-.17,4.06h-2.07l-.82-4.09,1.48.66v1.06c-1.29-.99-2.62-1.51-4.08-1.51-2.44,0-3.71,1.06-3.71,2.73,0,1.76.98,2.44,3.7,3.43l1.24.45c3.99,1.46,5.51,3.35,5.51,5.86,0,3.03-2.65,5.73-7.79,5.73-2.26,0-4.01-.52-5.98-1.54h.03Z"/>
      <path d="M33.95,14.36l.56.33-.16,5.67v15.15c0,2.79.04,5.68.12,8.42h-3.62c.08-2.74.12-5.62.12-8.4v-17.55l-3.27-.4v-1.42s6.25-1.8,6.25-1.8ZM37.61,42.49v1.43h-9.9v-1.43l4.48-.8h.93l4.49.8ZM45.86,24.94l-13.2,13.49v-2.33l10.72-11.16s2.48,0,2.48,0ZM44.14,41.67l4.46.83v1.43h-5.44l-6.58-10.63,2.37-2.42,7.83,12.4-2.63-1.62h0ZM41.93,27.38l-3.66-.91v-1.53h9.28v1.53l-4.44.68-1.18.23Z"/>
      <path d="M57.14,41.81c1.62,0,2.49-.48,5.48-2.74l.78.99c-3.62,3.54-5.15,4.39-7.63,4.39-2.95,0-5.37-1.76-5.37-5.08,0-2.27,1.22-3.93,6.63-5.88,1.68-.59,4.14-1.31,6.13-1.68v1.45c-1.8.37-4.08,1.12-5.27,1.6-3.5,1.36-3.94,2.72-3.94,3.92,0,2.05,1.5,3.03,3.2,3.03h-.01ZM64.66,34.34h-3.12v-3.25c0-3.9-1.17-4.86-3.61-4.86-1,0-2.23.12-3.72.71l1.74-1.18-1,3.48c-.35,1.25-1.06,1.91-2.17,1.91s-1.76-.68-1.85-1.7c.73-3.06,3.7-5.04,7.8-5.04,3.42,0,5.93,1.78,5.93,6.26v3.66h0ZM61.38,34.58c0-2.18.57-4.14,1.5-5.74l.49-.33c1.72-2.52,4.29-4.09,7.16-4.09,4.22,0,7.49,2.85,7.49,7.72,0,.88-.12,1.67-.28,2.2h-14.62v-1.7h9.21c1.88,0,2.36-.87,2.36-2.07,0-2.3-1.88-4.33-4.38-4.33s-5.35,2.14-5.35,8.02c0,4.91,2.55,7.6,6.49,7.6,2.54,0,4.13-1.15,5.56-2.8l.95.75c-1.45,2.86-4.03,4.64-7.68,4.64-5.38,0-8.9-3.58-8.9-9.86h0Z"/>
      <path d="M84.52,35.52v-1.91c0-2.2-.04-3.41-.12-5.01l-3.16-.36v-1.41l5.58-2.41.6.4.47,4.99v5.71c0,2.48.04,6.6.12,8.4h-3.62c.08-1.8.12-5.92.12-8.4h.01ZM81.56,42.49l4.37-.8h.99l4.37.8v1.43h-9.73v-1.43ZM86.22,30.13h2.32l-.97.33c1.25-3.79,3.71-6.04,6.07-6.04,1.19,0,2.4.58,2.88,1.45,0,1.89-.75,2.94-2.35,2.94-.94,0-1.71-.37-2.44-1.01l-1.08-.95,1.94-.34c-2.42,1.27-3.86,3.27-4.76,6.31l-1.6-.02v-2.66h0Z"/>
      <path d="M101.32,43.92c.08-1.8.12-5.92.12-8.4v-1.9c0-2.2-.04-3.42-.12-5.02l-3.16-.36v-1.41l5.58-2.41.6.4.47,4.63v6.08c0,2.48.04,6.6.12,8.4h-3.62.01ZM107.68,42.49v1.43h-9.27v-1.43l4.36-.8h.93l3.99.8h-.01ZM116.81,31.79v3.74c0,2.56.04,6.6.12,8.4h-3.61c.08-1.8.12-5.84.12-8.4v-3.39c0-3.67-.94-4.86-3.3-4.86-1.95,0-3.52.84-5.7,2.77h-.88v-1.84h2.07l-1.69.74c1.91-2.58,4.95-4.53,7.76-4.53,3.46,0,5.12,2.13,5.12,7.37h-.01ZM115.69,41.7l3.98.8v1.43h-9.26v-1.43l4.35-.8h.93ZM128.79,31.38v4.14c0,2.56.04,6.6.12,8.4h-3.61c.08-1.8.12-5.84.12-8.4v-3.46c0-3.72-1.02-4.78-3.34-4.78-1.79,0-3.47.74-5.67,2.77h-.99v-1.47h2.2l-1.83.37c2.12-3.03,5.04-4.53,7.87-4.53,3.25,0,5.12,2.02,5.12,6.97h0ZM127.68,41.7l3.99.8v1.43h-9.26v-1.43l4.34-.8h.94-.01Z"/>
    </g>
    <g>
      <path d="M134.59,42.09l3.74-.8-1.67,2.66c.08-1.8.12-5.92.12-8.4v-16.88l-2.48-.31v-1.69l8.25-1.8.65.41-.16,5.59v6.09l.12.52v13.54l-1.01,3.47-7.56-.54v-1.86ZM149.9,34.2c0-4.73-1.6-6.75-3.98-6.75-2.1,0-3.89,2.2-5.19,3.56l-.36-.66c2.29-4.3,4.95-6.37,8.48-6.37,4.35,0,7.83,3.47,7.83,10.12s-4.04,10.43-8.54,10.43c-3.59,0-5.7-2.03-7.47-6.16l.36-.76c1.65,2.21,2.88,3.54,4.85,3.54,2.33,0,4.03-2.22,4.03-6.95h-.01Z"/>
      <path d="M166.54,32.78c1.65-.48,4.49-1.23,6.37-1.68v1.67c-1.89.48-4.04,1.06-5.21,1.6-1.81.77-2.99,2.11-2.99,3.99,0,2,1.05,2.93,2.4,2.93.77,0,1.39-.32,2.67-1.25l1.61-1.21.42.58-1.68,1.82c-1.94,2.05-3.18,3.29-6.08,3.29-3.09,0-5.24-1.82-5.24-5.11,0-2.85,1.58-4.85,7.74-6.63h0ZM169.58,40.65v-10.01c0-3.54-.69-4.59-3.24-4.59-.98,0-2,.12-3.74.58l2.75-1.56-.29,2.78c-.1,2.66-1.39,3.73-2.93,3.73-1.43,0-2.38-.69-2.69-2,.21-3.33,3.43-5.58,9.19-5.58,5.13,0,7.16,2.17,7.16,7.52v8.97c0,.79.33,1.17.9,1.17.42,0,.74-.22,1.21-.88l1.06.71c-.96,2.18-2.39,3.02-4.81,3.02-2.72,0-4.22-1.43-4.56-3.85h-.01Z"/>
      <path d="M188.03,14.88l.65.41-.16,5.59v14.65c0,2.8.04,5.6.12,8.4h-6.61c.08-2.8.12-5.6.12-8.4v-16.76l-2.48-.4v-1.69l8.37-1.8h0ZM190.8,42.06v1.86h-10.93v-1.86l3.83-.8h3.02l4.09.8h0Z"/>
      <path d="M200.3,32.78c1.65-.48,4.49-1.23,6.37-1.68v1.67c-1.89.48-4.04,1.06-5.21,1.6-1.81.77-2.99,2.11-2.99,3.99,0,2,1.05,2.93,2.4,2.93.77,0,1.39-.32,2.67-1.25l1.61-1.21.42.58-1.68,1.82c-1.94,2.05-3.18,3.29-6.08,3.29-3.09,0-5.24-1.82-5.24-5.11,0-2.85,1.58-4.85,7.74-6.63h0ZM203.34,40.65v-10.01c0-3.54-.69-4.59-3.24-4.59-.98,0-2,.12-3.74.58l2.75-1.56-.29,2.78c-.1,2.66-1.39,3.73-2.93,3.73-1.43,0-2.38-.69-2.69-2,.21-3.33,3.43-5.58,9.19-5.58,5.13,0,7.16,2.17,7.16,7.52v8.97c0,.79.33,1.17.9,1.17.42,0,.74-.22,1.21-.88l1.06.71c-.96,2.18-2.39,3.02-4.81,3.02-2.72,0-4.22-1.43-4.56-3.85h-.01Z"/>
      <path d="M215.74,43.93c.08-1.8.12-5.92.12-8.4v-2.31c0-2.2-.04-3.04-.12-4.64l-2.45-.36v-1.57l7.89-2.66.69.43.37,4.44v6.67c0,2.48.04,6.6.12,8.4h-6.62ZM224.17,42.06v1.86h-10.53v-1.86l3.71-.8h3.05l3.77.8h0ZM234.27,30.87v4.66c0,2.56.04,6.6.12,8.4h-6.61c.08-1.8.12-5.84.12-8.4v-4.2c0-2.57-.64-3.48-2.23-3.48-1.42,0-3.35,1.06-4.94,2.93h-1.36v-2.58h2.7l-1.52,1.12c2.8-4.05,5.08-5.34,7.95-5.34,3.47,0,5.77,2.26,5.77,6.88h0ZM232.42,41.26l3.91.8v1.86h-10.55v-1.86l3.62-.8h3.02Z"/>
      <path d="M244.97,33.58c0,4.61,2.22,7.14,5.57,7.14,1.92,0,3.35-.89,4.5-2.23l1.39,1.23c-1.54,3.26-4.42,4.81-8.21,4.81-5.45,0-9.96-3.49-9.96-10.22s4.83-10.33,10.8-10.33c4.22,0,7.18,2.63,7.47,5.82-.43,1.43-1.26,2.09-2.69,2.09-1.58,0-2.88-.97-3.07-3.79l-.36-2.86,2.91,1.65c-1.24-.58-2.29-.86-3.55-.86-2.3,0-4.8,2.12-4.8,7.53v.02Z"/>
      <path d="M277.12,32.43c0,.86-.06,1.49-.22,2.15h-15.65v-2.11h7.5c1.92,0,2.42-.72,2.42-2.5,0-2.63-1.26-3.93-2.71-3.93-1.67,0-3.18,1.81-3.18,7.59,0,4.88,2.42,7.08,5.4,7.08,2.16,0,3.64-.9,4.85-2.15l1.38,1.3c-1.64,3.13-4.52,4.67-8.39,4.67-5.82,0-9.96-3.81-9.96-10.26s5.14-10.29,10.3-10.29,8.26,3.61,8.26,8.45h0Z"/>
    </g>
  </g>
</svg>